<mxfile modified="2023-08-12T19:59:08.374Z" host="app.diagrams.net" agent="Mozilla/5.0 (Windows NT 10.0; Win64; x64; rv:109.0) Gecko/20100101 Firefox/116.0" etag="Pwx-02YsIMUOFCOfK_WL" version="21.6.7" type="github">
  <diagram id="Ht1M8jgEwFfnCIfOTk4-" name="Page-1">
    <mxGraphModel dx="3031" dy="2264" grid="1" gridSize="10" guides="1" tooltips="1" connect="1" arrows="1" fold="1" page="1" pageScale="1" pageWidth="1169" pageHeight="827" math="0" shadow="0">
      <root>
        <mxCell id="0" />
        <mxCell id="1" parent="0" />
        <mxCell id="UEzPUAAOIrF-is8g5C7q-132" style="edgeStyle=orthogonalEdgeStyle;rounded=0;orthogonalLoop=1;jettySize=auto;html=1;startArrow=open;startFill=0;endArrow=open;endFill=0;strokeWidth=2;strokeColor=#808080;" parent="1" source="Ke6kimZ8KrRcSS34F_if-2" target="UEzPUAAOIrF-is8g5C7q-119" edge="1">
          <mxGeometry relative="1" as="geometry">
            <Array as="points">
              <mxPoint x="2889" y="350" />
            </Array>
          </mxGeometry>
        </mxCell>
        <mxCell id="Ke6kimZ8KrRcSS34F_if-10" style="edgeStyle=orthogonalEdgeStyle;rounded=0;orthogonalLoop=1;jettySize=auto;html=1;startArrow=classic;startFill=1;" edge="1" parent="1" source="UEzPUAAOIrF-is8g5C7q-116" target="Ke6kimZ8KrRcSS34F_if-2">
          <mxGeometry relative="1" as="geometry">
            <Array as="points">
              <mxPoint x="2960" y="39" />
              <mxPoint x="2960" y="358" />
            </Array>
          </mxGeometry>
        </mxCell>
        <mxCell id="UEzPUAAOIrF-is8g5C7q-116" value="Amazon S3&lt;br&gt;&lt;div&gt;terraform state&lt;/div&gt;" style="outlineConnect=0;fontColor=#232F3E;gradientColor=#60A337;gradientDirection=north;fillColor=#277116;strokeColor=#ffffff;dashed=0;verticalLabelPosition=bottom;verticalAlign=top;align=center;html=1;fontSize=12;fontStyle=0;aspect=fixed;shape=mxgraph.aws4.resourceIcon;resIcon=mxgraph.aws4.s3;labelBackgroundColor=#ffffff;" parent="1" vertex="1">
          <mxGeometry x="3050" width="78" height="78" as="geometry" />
        </mxCell>
        <mxCell id="UEzPUAAOIrF-is8g5C7q-119" value="terraform state" style="outlineConnect=0;fontColor=#232F3E;gradientColor=#4D72F3;gradientDirection=north;fillColor=#3334B9;strokeColor=#ffffff;dashed=0;verticalLabelPosition=bottom;verticalAlign=top;align=center;html=1;fontSize=12;fontStyle=0;aspect=fixed;shape=mxgraph.aws4.resourceIcon;resIcon=mxgraph.aws4.dynamodb;labelBackgroundColor=#ffffff;spacingTop=5;" parent="1" vertex="1">
          <mxGeometry x="2850" y="20" width="78" height="78" as="geometry" />
        </mxCell>
        <mxCell id="Ke6kimZ8KrRcSS34F_if-138" style="edgeStyle=orthogonalEdgeStyle;rounded=0;orthogonalLoop=1;jettySize=auto;html=1;entryX=1.008;entryY=0.961;entryDx=0;entryDy=0;entryPerimeter=0;" edge="1" parent="1" source="Ke6kimZ8KrRcSS34F_if-2" target="Ke6kimZ8KrRcSS34F_if-135">
          <mxGeometry relative="1" as="geometry">
            <Array as="points">
              <mxPoint x="2747" y="330" />
              <mxPoint x="2747" y="509" />
            </Array>
          </mxGeometry>
        </mxCell>
        <mxCell id="Ke6kimZ8KrRcSS34F_if-142" value="&lt;div style=&quot;font-size: 24px;&quot;&gt;&lt;font style=&quot;font-size: 20px;&quot;&gt;Terraform provision Dev&lt;/font&gt;&lt;/div&gt;" style="edgeLabel;html=1;align=center;verticalAlign=middle;resizable=0;points=[];" vertex="1" connectable="0" parent="Ke6kimZ8KrRcSS34F_if-138">
          <mxGeometry x="0.5164" relative="1" as="geometry">
            <mxPoint x="166" y="-39" as="offset" />
          </mxGeometry>
        </mxCell>
        <mxCell id="Ke6kimZ8KrRcSS34F_if-2" value="&lt;div&gt;GitHub Action&lt;/div&gt;&lt;div&gt;&lt;br&gt;&lt;/div&gt;" style="dashed=0;outlineConnect=0;html=1;align=center;labelPosition=center;verticalLabelPosition=bottom;verticalAlign=top;shape=mxgraph.weblogos.github" vertex="1" parent="1">
          <mxGeometry x="2970" y="320" width="75" height="75" as="geometry" />
        </mxCell>
        <mxCell id="Ke6kimZ8KrRcSS34F_if-14" style="edgeStyle=orthogonalEdgeStyle;rounded=0;orthogonalLoop=1;jettySize=auto;html=1;startArrow=none;startFill=0;" edge="1" parent="1" source="Ke6kimZ8KrRcSS34F_if-3" target="Ke6kimZ8KrRcSS34F_if-2">
          <mxGeometry relative="1" as="geometry" />
        </mxCell>
        <mxCell id="Ke6kimZ8KrRcSS34F_if-3" value="&lt;div&gt;GitHub&lt;/div&gt;&lt;div&gt;&lt;br&gt;&lt;/div&gt;&lt;div&gt;App&lt;br&gt;&lt;/div&gt;" style="sketch=0;outlineConnect=0;fontColor=#232F3E;gradientColor=none;fillColor=#232F3D;strokeColor=none;dashed=0;verticalLabelPosition=bottom;verticalAlign=top;align=center;html=1;fontSize=12;fontStyle=0;aspect=fixed;pointerEvents=1;shape=mxgraph.aws4.git_repository;" vertex="1" parent="1">
          <mxGeometry x="3180" y="140" width="60" height="78" as="geometry" />
        </mxCell>
        <mxCell id="Ke6kimZ8KrRcSS34F_if-15" style="edgeStyle=orthogonalEdgeStyle;rounded=0;orthogonalLoop=1;jettySize=auto;html=1;startArrow=none;startFill=0;" edge="1" parent="1" source="Ke6kimZ8KrRcSS34F_if-6" target="Ke6kimZ8KrRcSS34F_if-2">
          <mxGeometry relative="1" as="geometry">
            <Array as="points">
              <mxPoint x="3180" y="290" />
              <mxPoint x="3008" y="290" />
            </Array>
          </mxGeometry>
        </mxCell>
        <mxCell id="Ke6kimZ8KrRcSS34F_if-6" value="&lt;div&gt;GitHub&lt;/div&gt;&lt;div&gt;&lt;br&gt;&lt;/div&gt;&lt;div&gt;Infra terraform&lt;/div&gt;" style="sketch=0;outlineConnect=0;fontColor=#232F3E;gradientColor=none;fillColor=#232F3D;strokeColor=none;dashed=0;verticalLabelPosition=bottom;verticalAlign=top;align=center;html=1;fontSize=12;fontStyle=0;aspect=fixed;pointerEvents=1;shape=mxgraph.aws4.git_repository;" vertex="1" parent="1">
          <mxGeometry x="3180" y="320" width="60" height="78" as="geometry" />
        </mxCell>
        <mxCell id="Ke6kimZ8KrRcSS34F_if-12" style="edgeStyle=orthogonalEdgeStyle;rounded=0;orthogonalLoop=1;jettySize=auto;html=1;startArrow=classic;startFill=1;" edge="1" parent="1" source="Ke6kimZ8KrRcSS34F_if-11" target="Ke6kimZ8KrRcSS34F_if-2">
          <mxGeometry relative="1" as="geometry">
            <Array as="points">
              <mxPoint x="2770" y="270" />
              <mxPoint x="2990" y="270" />
            </Array>
          </mxGeometry>
        </mxCell>
        <mxCell id="Ke6kimZ8KrRcSS34F_if-136" style="edgeStyle=orthogonalEdgeStyle;rounded=0;orthogonalLoop=1;jettySize=auto;html=1;" edge="1" parent="1" source="Ke6kimZ8KrRcSS34F_if-11" target="Ke6kimZ8KrRcSS34F_if-107">
          <mxGeometry relative="1" as="geometry">
            <Array as="points">
              <mxPoint x="2610" y="210" />
              <mxPoint x="2610" y="860" />
            </Array>
          </mxGeometry>
        </mxCell>
        <mxCell id="Ke6kimZ8KrRcSS34F_if-162" value="&lt;font style=&quot;font-size: 18px;&quot;&gt;Apply appropriate docker image&lt;br&gt;&lt;/font&gt;" style="edgeLabel;html=1;align=center;verticalAlign=middle;resizable=0;points=[];" vertex="1" connectable="0" parent="Ke6kimZ8KrRcSS34F_if-136">
          <mxGeometry x="-0.4396" y="2" relative="1" as="geometry">
            <mxPoint x="-72" y="453" as="offset" />
          </mxGeometry>
        </mxCell>
        <mxCell id="Ke6kimZ8KrRcSS34F_if-137" style="edgeStyle=orthogonalEdgeStyle;rounded=0;orthogonalLoop=1;jettySize=auto;html=1;" edge="1" parent="1" source="Ke6kimZ8KrRcSS34F_if-11" target="Ke6kimZ8KrRcSS34F_if-124">
          <mxGeometry relative="1" as="geometry">
            <Array as="points">
              <mxPoint x="2700" y="210" />
              <mxPoint x="2700" y="1461" />
            </Array>
          </mxGeometry>
        </mxCell>
        <mxCell id="Ke6kimZ8KrRcSS34F_if-163" style="edgeStyle=orthogonalEdgeStyle;rounded=0;orthogonalLoop=1;jettySize=auto;html=1;" edge="1" parent="1" source="Ke6kimZ8KrRcSS34F_if-11" target="Ke6kimZ8KrRcSS34F_if-152">
          <mxGeometry relative="1" as="geometry" />
        </mxCell>
        <mxCell id="Ke6kimZ8KrRcSS34F_if-11" value="Amazon ECR" style="sketch=0;outlineConnect=0;fontColor=#232F3E;gradientColor=none;strokeColor=#ffffff;fillColor=#232F3E;dashed=0;verticalLabelPosition=middle;verticalAlign=bottom;align=center;html=1;whiteSpace=wrap;fontSize=10;fontStyle=1;spacing=3;shape=mxgraph.aws4.productIcon;prIcon=mxgraph.aws4.ecr;" vertex="1" parent="1">
          <mxGeometry x="2730" y="160" width="80" height="100" as="geometry" />
        </mxCell>
        <mxCell id="Ke6kimZ8KrRcSS34F_if-99" style="edgeStyle=orthogonalEdgeStyle;rounded=0;orthogonalLoop=1;jettySize=auto;html=1;startArrow=open;startFill=0;endArrow=open;endFill=0;strokeWidth=2;strokeColor=#808080;" edge="1" parent="1" source="Ke6kimZ8KrRcSS34F_if-105" target="Ke6kimZ8KrRcSS34F_if-106">
          <mxGeometry relative="1" as="geometry" />
        </mxCell>
        <mxCell id="Ke6kimZ8KrRcSS34F_if-100" style="edgeStyle=orthogonalEdgeStyle;rounded=0;orthogonalLoop=1;jettySize=auto;html=1;startArrow=open;startFill=0;endArrow=open;endFill=0;strokeWidth=2;strokeColor=#808080;" edge="1" parent="1" source="Ke6kimZ8KrRcSS34F_if-106" target="Ke6kimZ8KrRcSS34F_if-107">
          <mxGeometry relative="1" as="geometry">
            <Array as="points">
              <mxPoint x="2172" y="875" />
              <mxPoint x="2172" y="875" />
            </Array>
          </mxGeometry>
        </mxCell>
        <mxCell id="Ke6kimZ8KrRcSS34F_if-101" style="edgeStyle=orthogonalEdgeStyle;rounded=0;orthogonalLoop=1;jettySize=auto;html=1;startArrow=open;startFill=0;endArrow=open;endFill=0;strokeWidth=2;strokeColor=#808080;" edge="1" parent="1" source="Ke6kimZ8KrRcSS34F_if-105" target="Ke6kimZ8KrRcSS34F_if-106">
          <mxGeometry relative="1" as="geometry">
            <mxPoint x="2162" y="743.7241379310345" as="sourcePoint" />
            <mxPoint x="2079.9655172413795" y="831" as="targetPoint" />
            <Array as="points">
              <mxPoint x="2191" y="835" />
            </Array>
          </mxGeometry>
        </mxCell>
        <mxCell id="Ke6kimZ8KrRcSS34F_if-102" style="edgeStyle=orthogonalEdgeStyle;rounded=0;orthogonalLoop=1;jettySize=auto;html=1;startArrow=open;startFill=0;endArrow=open;endFill=0;strokeWidth=2;strokeColor=#808080;" edge="1" parent="1" source="Ke6kimZ8KrRcSS34F_if-106" target="Ke6kimZ8KrRcSS34F_if-107">
          <mxGeometry relative="1" as="geometry">
            <mxPoint x="2119" y="870" as="sourcePoint" />
            <mxPoint x="2252" y="870" as="targetPoint" />
            <Array as="points">
              <mxPoint x="2172" y="855" />
              <mxPoint x="2172" y="855" />
            </Array>
          </mxGeometry>
        </mxCell>
        <mxCell id="Ke6kimZ8KrRcSS34F_if-106" value="Amazon API&lt;br&gt;Gateway&lt;br&gt;" style="outlineConnect=0;fontColor=#232F3E;gradientColor=#945DF2;gradientDirection=north;fillColor=#5A30B5;strokeColor=#ffffff;dashed=0;verticalLabelPosition=bottom;verticalAlign=top;align=center;html=1;fontSize=12;fontStyle=0;aspect=fixed;shape=mxgraph.aws4.resourceIcon;resIcon=mxgraph.aws4.api_gateway;labelBackgroundColor=#ffffff;" vertex="1" parent="1">
          <mxGeometry x="2031" y="821" width="78" height="78" as="geometry" />
        </mxCell>
        <mxCell id="Ke6kimZ8KrRcSS34F_if-107" value="Lambda&lt;br&gt;function" style="outlineConnect=0;fontColor=#232F3E;gradientColor=none;fillColor=#D05C17;strokeColor=none;dashed=0;verticalLabelPosition=bottom;verticalAlign=top;align=center;html=1;fontSize=12;fontStyle=0;aspect=fixed;pointerEvents=1;shape=mxgraph.aws4.lambda_function;labelBackgroundColor=#ffffff;" vertex="1" parent="1">
          <mxGeometry x="2242" y="821" width="78" height="78" as="geometry" />
        </mxCell>
        <mxCell id="Ke6kimZ8KrRcSS34F_if-108" style="edgeStyle=orthogonalEdgeStyle;rounded=0;orthogonalLoop=1;jettySize=auto;html=1;startArrow=classic;startFill=1;endArrow=none;endFill=0;" edge="1" parent="1" source="Ke6kimZ8KrRcSS34F_if-109" target="Ke6kimZ8KrRcSS34F_if-107">
          <mxGeometry relative="1" as="geometry">
            <Array as="points">
              <mxPoint x="2392" y="878" />
              <mxPoint x="2332" y="878" />
              <mxPoint x="2332" y="860" />
            </Array>
          </mxGeometry>
        </mxCell>
        <mxCell id="Ke6kimZ8KrRcSS34F_if-109" value="Amazon&lt;br&gt;CloudWatch&lt;br&gt;" style="outlineConnect=0;fontColor=#232F3E;gradientColor=#F34482;gradientDirection=north;fillColor=#BC1356;strokeColor=#ffffff;dashed=0;verticalLabelPosition=bottom;verticalAlign=top;align=center;html=1;fontSize=12;fontStyle=0;aspect=fixed;shape=mxgraph.aws4.resourceIcon;resIcon=mxgraph.aws4.cloudwatch;labelBackgroundColor=#ffffff;" vertex="1" parent="1">
          <mxGeometry x="2362" y="978" width="78" height="78" as="geometry" />
        </mxCell>
        <mxCell id="Ke6kimZ8KrRcSS34F_if-110" style="edgeStyle=orthogonalEdgeStyle;rounded=0;orthogonalLoop=1;jettySize=auto;html=1;" edge="1" parent="1" source="Ke6kimZ8KrRcSS34F_if-111" target="Ke6kimZ8KrRcSS34F_if-107">
          <mxGeometry relative="1" as="geometry" />
        </mxCell>
        <mxCell id="Ke6kimZ8KrRcSS34F_if-111" value="IAM Roles" style="outlineConnect=0;fontColor=#232F3E;gradientColor=none;fillColor=#C7131F;strokeColor=none;dashed=0;verticalLabelPosition=bottom;verticalAlign=top;align=center;html=1;fontSize=12;fontStyle=0;aspect=fixed;pointerEvents=1;shape=mxgraph.aws4.role;labelBackgroundColor=#ffffff;" vertex="1" parent="1">
          <mxGeometry x="2242" y="1002" width="78" height="44" as="geometry" />
        </mxCell>
        <mxCell id="Ke6kimZ8KrRcSS34F_if-112" style="edgeStyle=orthogonalEdgeStyle;rounded=0;orthogonalLoop=1;jettySize=auto;html=1;startArrow=classic;startFill=1;endArrow=none;endFill=0;" edge="1" parent="1" source="Ke6kimZ8KrRcSS34F_if-113" target="Ke6kimZ8KrRcSS34F_if-107">
          <mxGeometry relative="1" as="geometry">
            <Array as="points">
              <mxPoint x="2212" y="1007" />
              <mxPoint x="2212" y="860" />
            </Array>
          </mxGeometry>
        </mxCell>
        <mxCell id="Ke6kimZ8KrRcSS34F_if-113" value="Amazon&lt;br&gt;CloudWatch Logs&lt;br&gt;" style="outlineConnect=0;fontColor=#232F3E;gradientColor=none;gradientDirection=north;fillColor=#F34482;strokeColor=none;dashed=0;verticalLabelPosition=bottom;verticalAlign=top;align=center;html=1;fontSize=12;fontStyle=0;aspect=fixed;shape=mxgraph.aws4.cloudwatch;labelBackgroundColor=#ffffff;" vertex="1" parent="1">
          <mxGeometry x="2052" y="968" width="78" height="78" as="geometry" />
        </mxCell>
        <mxCell id="Ke6kimZ8KrRcSS34F_if-114" style="edgeStyle=orthogonalEdgeStyle;rounded=0;orthogonalLoop=1;jettySize=auto;html=1;exitX=0.5;exitY=1;exitDx=0;exitDy=0;exitPerimeter=0;" edge="1" parent="1" source="Ke6kimZ8KrRcSS34F_if-115" target="Ke6kimZ8KrRcSS34F_if-107">
          <mxGeometry relative="1" as="geometry" />
        </mxCell>
        <mxCell id="Ke6kimZ8KrRcSS34F_if-116" style="edgeStyle=orthogonalEdgeStyle;rounded=0;orthogonalLoop=1;jettySize=auto;html=1;startArrow=open;startFill=0;endArrow=open;endFill=0;strokeWidth=2;strokeColor=#808080;" edge="1" parent="1" source="Ke6kimZ8KrRcSS34F_if-122" target="Ke6kimZ8KrRcSS34F_if-123">
          <mxGeometry relative="1" as="geometry" />
        </mxCell>
        <mxCell id="Ke6kimZ8KrRcSS34F_if-117" style="edgeStyle=orthogonalEdgeStyle;rounded=0;orthogonalLoop=1;jettySize=auto;html=1;startArrow=open;startFill=0;endArrow=open;endFill=0;strokeWidth=2;strokeColor=#808080;" edge="1" parent="1" source="Ke6kimZ8KrRcSS34F_if-123" target="Ke6kimZ8KrRcSS34F_if-124">
          <mxGeometry relative="1" as="geometry">
            <Array as="points">
              <mxPoint x="2195.5" y="1476" />
              <mxPoint x="2195.5" y="1476" />
            </Array>
          </mxGeometry>
        </mxCell>
        <mxCell id="Ke6kimZ8KrRcSS34F_if-118" style="edgeStyle=orthogonalEdgeStyle;rounded=0;orthogonalLoop=1;jettySize=auto;html=1;startArrow=open;startFill=0;endArrow=open;endFill=0;strokeWidth=2;strokeColor=#808080;" edge="1" parent="1" source="Ke6kimZ8KrRcSS34F_if-122" target="Ke6kimZ8KrRcSS34F_if-123">
          <mxGeometry relative="1" as="geometry">
            <mxPoint x="2185.5" y="1344.7241379310344" as="sourcePoint" />
            <mxPoint x="2103.4655172413795" y="1432" as="targetPoint" />
            <Array as="points">
              <mxPoint x="2214.5" y="1436" />
            </Array>
          </mxGeometry>
        </mxCell>
        <mxCell id="Ke6kimZ8KrRcSS34F_if-119" style="edgeStyle=orthogonalEdgeStyle;rounded=0;orthogonalLoop=1;jettySize=auto;html=1;startArrow=open;startFill=0;endArrow=open;endFill=0;strokeWidth=2;strokeColor=#808080;" edge="1" parent="1" source="Ke6kimZ8KrRcSS34F_if-123" target="Ke6kimZ8KrRcSS34F_if-124">
          <mxGeometry relative="1" as="geometry">
            <mxPoint x="2142.5" y="1471" as="sourcePoint" />
            <mxPoint x="2275.5" y="1471" as="targetPoint" />
            <Array as="points">
              <mxPoint x="2195.5" y="1456" />
              <mxPoint x="2195.5" y="1456" />
            </Array>
          </mxGeometry>
        </mxCell>
        <mxCell id="Ke6kimZ8KrRcSS34F_if-120" style="edgeStyle=orthogonalEdgeStyle;rounded=0;orthogonalLoop=1;jettySize=auto;html=1;" edge="1" parent="1" source="Ke6kimZ8KrRcSS34F_if-121" target="Ke6kimZ8KrRcSS34F_if-123">
          <mxGeometry relative="1" as="geometry">
            <Array as="points">
              <mxPoint x="1810" y="886" />
              <mxPoint x="1810" y="1461" />
            </Array>
          </mxGeometry>
        </mxCell>
        <mxCell id="Ke6kimZ8KrRcSS34F_if-145" style="edgeStyle=orthogonalEdgeStyle;rounded=0;orthogonalLoop=1;jettySize=auto;html=1;" edge="1" parent="1" source="Ke6kimZ8KrRcSS34F_if-121" target="Ke6kimZ8KrRcSS34F_if-106">
          <mxGeometry relative="1" as="geometry">
            <Array as="points">
              <mxPoint x="1540" y="870" />
            </Array>
          </mxGeometry>
        </mxCell>
        <mxCell id="Ke6kimZ8KrRcSS34F_if-146" style="edgeStyle=orthogonalEdgeStyle;rounded=0;orthogonalLoop=1;jettySize=auto;html=1;" edge="1" parent="1" source="Ke6kimZ8KrRcSS34F_if-121" target="Ke6kimZ8KrRcSS34F_if-151">
          <mxGeometry relative="1" as="geometry">
            <mxPoint x="2000" y="300" as="targetPoint" />
            <Array as="points">
              <mxPoint x="1810" y="886" />
              <mxPoint x="1810" y="300" />
            </Array>
          </mxGeometry>
        </mxCell>
        <mxCell id="Ke6kimZ8KrRcSS34F_if-121" value="&lt;div&gt;API user&lt;/div&gt;&lt;div&gt;&lt;br&gt;&lt;/div&gt;" style="outlineConnect=0;gradientColor=none;fontColor=#545B64;strokeColor=none;fillColor=#879196;dashed=0;verticalLabelPosition=bottom;verticalAlign=top;align=center;html=1;fontSize=12;fontStyle=0;aspect=fixed;shape=mxgraph.aws4.illustration_desktop;pointerEvents=1;labelBackgroundColor=#ffffff;" vertex="1" parent="1">
          <mxGeometry x="1480" y="840" width="100" height="91" as="geometry" />
        </mxCell>
        <mxCell id="Ke6kimZ8KrRcSS34F_if-123" value="Amazon API&lt;br&gt;Gateway&lt;br&gt;" style="outlineConnect=0;fontColor=#232F3E;gradientColor=#945DF2;gradientDirection=north;fillColor=#5A30B5;strokeColor=#ffffff;dashed=0;verticalLabelPosition=bottom;verticalAlign=top;align=center;html=1;fontSize=12;fontStyle=0;aspect=fixed;shape=mxgraph.aws4.resourceIcon;resIcon=mxgraph.aws4.api_gateway;labelBackgroundColor=#ffffff;" vertex="1" parent="1">
          <mxGeometry x="2054.5" y="1422" width="78" height="78" as="geometry" />
        </mxCell>
        <mxCell id="Ke6kimZ8KrRcSS34F_if-124" value="Lambda&lt;br&gt;function" style="outlineConnect=0;fontColor=#232F3E;gradientColor=none;fillColor=#D05C17;strokeColor=none;dashed=0;verticalLabelPosition=bottom;verticalAlign=top;align=center;html=1;fontSize=12;fontStyle=0;aspect=fixed;pointerEvents=1;shape=mxgraph.aws4.lambda_function;labelBackgroundColor=#ffffff;" vertex="1" parent="1">
          <mxGeometry x="2265.5" y="1422" width="78" height="78" as="geometry" />
        </mxCell>
        <mxCell id="Ke6kimZ8KrRcSS34F_if-125" style="edgeStyle=orthogonalEdgeStyle;rounded=0;orthogonalLoop=1;jettySize=auto;html=1;startArrow=classic;startFill=1;endArrow=none;endFill=0;" edge="1" parent="1" source="Ke6kimZ8KrRcSS34F_if-126" target="Ke6kimZ8KrRcSS34F_if-124">
          <mxGeometry relative="1" as="geometry">
            <Array as="points">
              <mxPoint x="2415.5" y="1479" />
              <mxPoint x="2355.5" y="1479" />
              <mxPoint x="2355.5" y="1461" />
            </Array>
          </mxGeometry>
        </mxCell>
        <mxCell id="Ke6kimZ8KrRcSS34F_if-126" value="Amazon&lt;br&gt;CloudWatch&lt;br&gt;" style="outlineConnect=0;fontColor=#232F3E;gradientColor=#F34482;gradientDirection=north;fillColor=#BC1356;strokeColor=#ffffff;dashed=0;verticalLabelPosition=bottom;verticalAlign=top;align=center;html=1;fontSize=12;fontStyle=0;aspect=fixed;shape=mxgraph.aws4.resourceIcon;resIcon=mxgraph.aws4.cloudwatch;labelBackgroundColor=#ffffff;" vertex="1" parent="1">
          <mxGeometry x="2385.5" y="1579" width="78" height="78" as="geometry" />
        </mxCell>
        <mxCell id="Ke6kimZ8KrRcSS34F_if-127" style="edgeStyle=orthogonalEdgeStyle;rounded=0;orthogonalLoop=1;jettySize=auto;html=1;" edge="1" parent="1" source="Ke6kimZ8KrRcSS34F_if-128" target="Ke6kimZ8KrRcSS34F_if-124">
          <mxGeometry relative="1" as="geometry" />
        </mxCell>
        <mxCell id="Ke6kimZ8KrRcSS34F_if-128" value="IAM Roles" style="outlineConnect=0;fontColor=#232F3E;gradientColor=none;fillColor=#C7131F;strokeColor=none;dashed=0;verticalLabelPosition=bottom;verticalAlign=top;align=center;html=1;fontSize=12;fontStyle=0;aspect=fixed;pointerEvents=1;shape=mxgraph.aws4.role;labelBackgroundColor=#ffffff;" vertex="1" parent="1">
          <mxGeometry x="2265.5" y="1603" width="78" height="44" as="geometry" />
        </mxCell>
        <mxCell id="Ke6kimZ8KrRcSS34F_if-129" style="edgeStyle=orthogonalEdgeStyle;rounded=0;orthogonalLoop=1;jettySize=auto;html=1;startArrow=classic;startFill=1;endArrow=none;endFill=0;" edge="1" parent="1" source="Ke6kimZ8KrRcSS34F_if-130" target="Ke6kimZ8KrRcSS34F_if-124">
          <mxGeometry relative="1" as="geometry">
            <Array as="points">
              <mxPoint x="2235.5" y="1608" />
              <mxPoint x="2235.5" y="1461" />
            </Array>
          </mxGeometry>
        </mxCell>
        <mxCell id="Ke6kimZ8KrRcSS34F_if-130" value="Amazon&lt;br&gt;CloudWatch Logs&lt;br&gt;" style="outlineConnect=0;fontColor=#232F3E;gradientColor=none;gradientDirection=north;fillColor=#F34482;strokeColor=none;dashed=0;verticalLabelPosition=bottom;verticalAlign=top;align=center;html=1;fontSize=12;fontStyle=0;aspect=fixed;shape=mxgraph.aws4.cloudwatch;labelBackgroundColor=#ffffff;" vertex="1" parent="1">
          <mxGeometry x="2075.5" y="1569" width="78" height="78" as="geometry" />
        </mxCell>
        <mxCell id="Ke6kimZ8KrRcSS34F_if-131" style="edgeStyle=orthogonalEdgeStyle;rounded=0;orthogonalLoop=1;jettySize=auto;html=1;exitX=0.5;exitY=1;exitDx=0;exitDy=0;exitPerimeter=0;" edge="1" parent="1" source="Ke6kimZ8KrRcSS34F_if-132" target="Ke6kimZ8KrRcSS34F_if-124">
          <mxGeometry relative="1" as="geometry" />
        </mxCell>
        <mxCell id="Ke6kimZ8KrRcSS34F_if-133" value="PROD" style="swimlane;startSize=0;fontSize=24;" vertex="1" parent="1">
          <mxGeometry x="1980" y="1200" width="547" height="538" as="geometry" />
        </mxCell>
        <mxCell id="Ke6kimZ8KrRcSS34F_if-122" value="Lambda" style="outlineConnect=0;fontColor=#232F3E;gradientColor=#F78E04;gradientDirection=north;fillColor=#D05C17;strokeColor=#ffffff;dashed=0;verticalLabelPosition=bottom;verticalAlign=top;align=center;html=1;fontSize=12;fontStyle=0;aspect=fixed;shape=mxgraph.aws4.resourceIcon;resIcon=mxgraph.aws4.lambda;labelBackgroundColor=#ffffff;spacingTop=3;" vertex="1" parent="Ke6kimZ8KrRcSS34F_if-133">
          <mxGeometry x="110" y="30" width="78" height="78" as="geometry" />
        </mxCell>
        <mxCell id="Ke6kimZ8KrRcSS34F_if-132" value="&lt;div&gt;PostgresSql RDS&lt;/div&gt;&lt;div&gt;&lt;br&gt;&lt;/div&gt;" style="sketch=0;points=[[0,0,0],[0.25,0,0],[0.5,0,0],[0.75,0,0],[1,0,0],[0,1,0],[0.25,1,0],[0.5,1,0],[0.75,1,0],[1,1,0],[0,0.25,0],[0,0.5,0],[0,0.75,0],[1,0.25,0],[1,0.5,0],[1,0.75,0]];outlineConnect=0;fontColor=#232F3E;gradientColor=#4D72F3;gradientDirection=north;fillColor=#3334B9;strokeColor=#ffffff;dashed=0;verticalLabelPosition=bottom;verticalAlign=top;align=center;html=1;fontSize=12;fontStyle=0;aspect=fixed;shape=mxgraph.aws4.resourceIcon;resIcon=mxgraph.aws4.rds;" vertex="1" parent="Ke6kimZ8KrRcSS34F_if-133">
          <mxGeometry x="405.5" y="100" width="78" height="78" as="geometry" />
        </mxCell>
        <mxCell id="Ke6kimZ8KrRcSS34F_if-134" value="SIT&#xa;" style="swimlane;startSize=0;fontSize=24;" vertex="1" parent="1">
          <mxGeometry x="1980" y="600" width="544.5" height="537" as="geometry" />
        </mxCell>
        <mxCell id="Ke6kimZ8KrRcSS34F_if-105" value="Lambda" style="outlineConnect=0;fontColor=#232F3E;gradientColor=#F78E04;gradientDirection=north;fillColor=#D05C17;strokeColor=#ffffff;dashed=0;verticalLabelPosition=bottom;verticalAlign=top;align=center;html=1;fontSize=12;fontStyle=0;aspect=fixed;shape=mxgraph.aws4.resourceIcon;resIcon=mxgraph.aws4.lambda;labelBackgroundColor=#ffffff;spacingTop=3;" vertex="1" parent="Ke6kimZ8KrRcSS34F_if-134">
          <mxGeometry x="140" y="30" width="78" height="78" as="geometry" />
        </mxCell>
        <mxCell id="Ke6kimZ8KrRcSS34F_if-115" value="&lt;div&gt;PostgresSql RDS&lt;/div&gt;&lt;div&gt;&lt;br&gt;&lt;/div&gt;" style="sketch=0;points=[[0,0,0],[0.25,0,0],[0.5,0,0],[0.75,0,0],[1,0,0],[0,1,0],[0.25,1,0],[0.5,1,0],[0.75,1,0],[1,1,0],[0,0.25,0],[0,0.5,0],[0,0.75,0],[1,0.25,0],[1,0.5,0],[1,0.75,0]];outlineConnect=0;fontColor=#232F3E;gradientColor=#4D72F3;gradientDirection=north;fillColor=#3334B9;strokeColor=#ffffff;dashed=0;verticalLabelPosition=bottom;verticalAlign=top;align=center;html=1;fontSize=12;fontStyle=0;aspect=fixed;shape=mxgraph.aws4.resourceIcon;resIcon=mxgraph.aws4.rds;" vertex="1" parent="Ke6kimZ8KrRcSS34F_if-134">
          <mxGeometry x="411" y="90" width="78" height="78" as="geometry" />
        </mxCell>
        <mxCell id="Ke6kimZ8KrRcSS34F_if-135" value="DEV&#xa;" style="swimlane;startSize=0;fontSize=24;" vertex="1" parent="1">
          <mxGeometry x="1970" y="31" width="554.5" height="497" as="geometry" />
        </mxCell>
        <mxCell id="Ke6kimZ8KrRcSS34F_if-151" value="Amazon API&lt;br&gt;Gateway&lt;br&gt;" style="outlineConnect=0;fontColor=#232F3E;gradientColor=#945DF2;gradientDirection=north;fillColor=#5A30B5;strokeColor=#ffffff;dashed=0;verticalLabelPosition=bottom;verticalAlign=top;align=center;html=1;fontSize=12;fontStyle=0;aspect=fixed;shape=mxgraph.aws4.resourceIcon;resIcon=mxgraph.aws4.api_gateway;labelBackgroundColor=#ffffff;" vertex="1" parent="Ke6kimZ8KrRcSS34F_if-135">
          <mxGeometry x="84.5" y="210" width="78" height="78" as="geometry" />
        </mxCell>
        <mxCell id="Ke6kimZ8KrRcSS34F_if-152" value="Lambda&lt;br&gt;function" style="outlineConnect=0;fontColor=#232F3E;gradientColor=none;fillColor=#D05C17;strokeColor=none;dashed=0;verticalLabelPosition=bottom;verticalAlign=top;align=center;html=1;fontSize=12;fontStyle=0;aspect=fixed;pointerEvents=1;shape=mxgraph.aws4.lambda_function;labelBackgroundColor=#ffffff;" vertex="1" parent="Ke6kimZ8KrRcSS34F_if-135">
          <mxGeometry x="295.5" y="210" width="78" height="78" as="geometry" />
        </mxCell>
        <mxCell id="Ke6kimZ8KrRcSS34F_if-148" style="edgeStyle=orthogonalEdgeStyle;rounded=0;orthogonalLoop=1;jettySize=auto;html=1;startArrow=open;startFill=0;endArrow=open;endFill=0;strokeWidth=2;strokeColor=#808080;" edge="1" parent="Ke6kimZ8KrRcSS34F_if-135" source="Ke6kimZ8KrRcSS34F_if-151" target="Ke6kimZ8KrRcSS34F_if-152">
          <mxGeometry relative="1" as="geometry">
            <Array as="points">
              <mxPoint x="225.5" y="264" />
              <mxPoint x="225.5" y="264" />
            </Array>
          </mxGeometry>
        </mxCell>
        <mxCell id="Ke6kimZ8KrRcSS34F_if-150" style="edgeStyle=orthogonalEdgeStyle;rounded=0;orthogonalLoop=1;jettySize=auto;html=1;startArrow=open;startFill=0;endArrow=open;endFill=0;strokeWidth=2;strokeColor=#808080;" edge="1" parent="Ke6kimZ8KrRcSS34F_if-135" source="Ke6kimZ8KrRcSS34F_if-151" target="Ke6kimZ8KrRcSS34F_if-152">
          <mxGeometry relative="1" as="geometry">
            <mxPoint x="172.5" y="259" as="sourcePoint" />
            <mxPoint x="305.5" y="259" as="targetPoint" />
            <Array as="points">
              <mxPoint x="225.5" y="244" />
              <mxPoint x="225.5" y="244" />
            </Array>
          </mxGeometry>
        </mxCell>
        <mxCell id="Ke6kimZ8KrRcSS34F_if-153" style="edgeStyle=orthogonalEdgeStyle;rounded=0;orthogonalLoop=1;jettySize=auto;html=1;startArrow=classic;startFill=1;endArrow=none;endFill=0;" edge="1" parent="Ke6kimZ8KrRcSS34F_if-135" source="Ke6kimZ8KrRcSS34F_if-154" target="Ke6kimZ8KrRcSS34F_if-152">
          <mxGeometry relative="1" as="geometry">
            <Array as="points">
              <mxPoint x="445.5" y="267" />
              <mxPoint x="385.5" y="267" />
              <mxPoint x="385.5" y="249" />
            </Array>
          </mxGeometry>
        </mxCell>
        <mxCell id="Ke6kimZ8KrRcSS34F_if-154" value="Amazon&lt;br&gt;CloudWatch&lt;br&gt;" style="outlineConnect=0;fontColor=#232F3E;gradientColor=#F34482;gradientDirection=north;fillColor=#BC1356;strokeColor=#ffffff;dashed=0;verticalLabelPosition=bottom;verticalAlign=top;align=center;html=1;fontSize=12;fontStyle=0;aspect=fixed;shape=mxgraph.aws4.resourceIcon;resIcon=mxgraph.aws4.cloudwatch;labelBackgroundColor=#ffffff;" vertex="1" parent="Ke6kimZ8KrRcSS34F_if-135">
          <mxGeometry x="415.5" y="367" width="78" height="78" as="geometry" />
        </mxCell>
        <mxCell id="Ke6kimZ8KrRcSS34F_if-155" style="edgeStyle=orthogonalEdgeStyle;rounded=0;orthogonalLoop=1;jettySize=auto;html=1;" edge="1" parent="Ke6kimZ8KrRcSS34F_if-135" source="Ke6kimZ8KrRcSS34F_if-156" target="Ke6kimZ8KrRcSS34F_if-152">
          <mxGeometry relative="1" as="geometry" />
        </mxCell>
        <mxCell id="Ke6kimZ8KrRcSS34F_if-156" value="IAM Roles" style="outlineConnect=0;fontColor=#232F3E;gradientColor=none;fillColor=#C7131F;strokeColor=none;dashed=0;verticalLabelPosition=bottom;verticalAlign=top;align=center;html=1;fontSize=12;fontStyle=0;aspect=fixed;pointerEvents=1;shape=mxgraph.aws4.role;labelBackgroundColor=#ffffff;" vertex="1" parent="Ke6kimZ8KrRcSS34F_if-135">
          <mxGeometry x="295.5" y="391" width="78" height="44" as="geometry" />
        </mxCell>
        <mxCell id="Ke6kimZ8KrRcSS34F_if-157" style="edgeStyle=orthogonalEdgeStyle;rounded=0;orthogonalLoop=1;jettySize=auto;html=1;startArrow=classic;startFill=1;endArrow=none;endFill=0;" edge="1" parent="Ke6kimZ8KrRcSS34F_if-135" source="Ke6kimZ8KrRcSS34F_if-158" target="Ke6kimZ8KrRcSS34F_if-152">
          <mxGeometry relative="1" as="geometry">
            <Array as="points">
              <mxPoint x="265.5" y="396" />
              <mxPoint x="265.5" y="249" />
            </Array>
          </mxGeometry>
        </mxCell>
        <mxCell id="Ke6kimZ8KrRcSS34F_if-158" value="Amazon&lt;br&gt;CloudWatch Logs&lt;br&gt;" style="outlineConnect=0;fontColor=#232F3E;gradientColor=none;gradientDirection=north;fillColor=#F34482;strokeColor=none;dashed=0;verticalLabelPosition=bottom;verticalAlign=top;align=center;html=1;fontSize=12;fontStyle=0;aspect=fixed;shape=mxgraph.aws4.cloudwatch;labelBackgroundColor=#ffffff;" vertex="1" parent="Ke6kimZ8KrRcSS34F_if-135">
          <mxGeometry x="105.5" y="357" width="78" height="78" as="geometry" />
        </mxCell>
        <mxCell id="Ke6kimZ8KrRcSS34F_if-159" style="edgeStyle=orthogonalEdgeStyle;rounded=0;orthogonalLoop=1;jettySize=auto;html=1;exitX=0.5;exitY=1;exitDx=0;exitDy=0;exitPerimeter=0;" edge="1" parent="Ke6kimZ8KrRcSS34F_if-135" source="Ke6kimZ8KrRcSS34F_if-161" target="Ke6kimZ8KrRcSS34F_if-152">
          <mxGeometry relative="1" as="geometry" />
        </mxCell>
        <mxCell id="Ke6kimZ8KrRcSS34F_if-160" value="Lambda" style="outlineConnect=0;fontColor=#232F3E;gradientColor=#F78E04;gradientDirection=north;fillColor=#D05C17;strokeColor=#ffffff;dashed=0;verticalLabelPosition=bottom;verticalAlign=top;align=center;html=1;fontSize=12;fontStyle=0;aspect=fixed;shape=mxgraph.aws4.resourceIcon;resIcon=mxgraph.aws4.lambda;labelBackgroundColor=#ffffff;spacingTop=3;" vertex="1" parent="Ke6kimZ8KrRcSS34F_if-135">
          <mxGeometry x="173.5" y="19" width="78" height="78" as="geometry" />
        </mxCell>
        <mxCell id="Ke6kimZ8KrRcSS34F_if-147" style="edgeStyle=orthogonalEdgeStyle;rounded=0;orthogonalLoop=1;jettySize=auto;html=1;startArrow=open;startFill=0;endArrow=open;endFill=0;strokeWidth=2;strokeColor=#808080;" edge="1" parent="Ke6kimZ8KrRcSS34F_if-135" source="Ke6kimZ8KrRcSS34F_if-160" target="Ke6kimZ8KrRcSS34F_if-151">
          <mxGeometry relative="1" as="geometry" />
        </mxCell>
        <mxCell id="Ke6kimZ8KrRcSS34F_if-149" style="edgeStyle=orthogonalEdgeStyle;rounded=0;orthogonalLoop=1;jettySize=auto;html=1;startArrow=open;startFill=0;endArrow=open;endFill=0;strokeWidth=2;strokeColor=#808080;" edge="1" parent="Ke6kimZ8KrRcSS34F_if-135" source="Ke6kimZ8KrRcSS34F_if-160" target="Ke6kimZ8KrRcSS34F_if-151">
          <mxGeometry relative="1" as="geometry">
            <mxPoint x="215.5" y="132.72413793103453" as="sourcePoint" />
            <mxPoint x="133.46551724137953" y="220" as="targetPoint" />
            <Array as="points">
              <mxPoint x="244.5" y="224" />
            </Array>
          </mxGeometry>
        </mxCell>
        <mxCell id="Ke6kimZ8KrRcSS34F_if-161" value="&lt;div&gt;PostgresSql RDS&lt;/div&gt;&lt;div&gt;&lt;br&gt;&lt;/div&gt;" style="sketch=0;points=[[0,0,0],[0.25,0,0],[0.5,0,0],[0.75,0,0],[1,0,0],[0,1,0],[0.25,1,0],[0.5,1,0],[0.75,1,0],[1,1,0],[0,0.25,0],[0,0.5,0],[0,0.75,0],[1,0.25,0],[1,0.5,0],[1,0.75,0]];outlineConnect=0;fontColor=#232F3E;gradientColor=#4D72F3;gradientDirection=north;fillColor=#3334B9;strokeColor=#ffffff;dashed=0;verticalLabelPosition=bottom;verticalAlign=top;align=center;html=1;fontSize=12;fontStyle=0;aspect=fixed;shape=mxgraph.aws4.resourceIcon;resIcon=mxgraph.aws4.rds;" vertex="1" parent="Ke6kimZ8KrRcSS34F_if-135">
          <mxGeometry x="444.5" y="79" width="78" height="78" as="geometry" />
        </mxCell>
        <mxCell id="Ke6kimZ8KrRcSS34F_if-143" style="edgeStyle=orthogonalEdgeStyle;rounded=0;orthogonalLoop=1;jettySize=auto;html=1;entryX=1.003;entryY=0.804;entryDx=0;entryDy=0;entryPerimeter=0;" edge="1" parent="1" target="Ke6kimZ8KrRcSS34F_if-134">
          <mxGeometry relative="1" as="geometry">
            <mxPoint x="2980" y="368" as="sourcePoint" />
            <mxPoint x="2541" y="519" as="targetPoint" />
            <Array as="points">
              <mxPoint x="2800" y="369" />
              <mxPoint x="2800" y="1032" />
            </Array>
          </mxGeometry>
        </mxCell>
        <mxCell id="Ke6kimZ8KrRcSS34F_if-144" value="&lt;div style=&quot;font-size: 24px;&quot;&gt;&lt;font style=&quot;font-size: 20px;&quot;&gt;Terraform provision Sit&lt;br&gt;&lt;/font&gt;&lt;/div&gt;" style="edgeLabel;html=1;align=center;verticalAlign=middle;resizable=0;points=[];" vertex="1" connectable="0" parent="Ke6kimZ8KrRcSS34F_if-143">
          <mxGeometry x="0.5164" relative="1" as="geometry">
            <mxPoint x="64" y="-25" as="offset" />
          </mxGeometry>
        </mxCell>
      </root>
    </mxGraphModel>
  </diagram>
</mxfile>
